<svg width="87" height="24" viewBox="0 0 87 24" fill="none" xmlns="http://www.w3.org/2000/svg">
<path d="M13.656 2.00802C13.592 2.72802 13.544 3.42402 13.512 4.09602C13.496 4.76802 13.488 5.28802 13.488 5.65602C13.488 6.00802 13.496 6.34402 13.512 6.66402C13.528 6.98402 13.544 7.25602 13.56 7.48002H13.008C12.8 6.23202 12.512 5.25602 12.144 4.55202C11.776 3.83202 11.32 3.32002 10.776 3.01603C10.248 2.71202 9.61601 2.56002 8.88001 2.56002H8.08801C7.62401 2.56002 7.27201 2.60002 7.03201 2.68003C6.79201 2.76003 6.63201 2.92003 6.55201 3.16003C6.47201 3.40002 6.43201 3.76802 6.43201 4.26403V16.312C6.43201 16.936 6.49601 17.4 6.62401 17.704C6.75201 18.008 7.00001 18.208 7.36801 18.304C7.73601 18.4 8.28001 18.456 9.00001 18.472V19C8.50401 18.984 7.86401 18.968 7.08001 18.952C6.29601 18.936 5.47201 18.928 4.60801 18.928C3.92001 18.928 3.24801 18.936 2.59201 18.952C1.93601 18.968 1.34401 18.984 0.81601 19V18.52C1.32801 18.488 1.71201 18.424 1.96801 18.328C2.22401 18.232 2.39201 18.04 2.47201 17.752C2.56801 17.464 2.61601 17.032 2.61601 16.456V4.55202C2.61601 3.96002 2.56801 3.52802 2.47201 3.25602C2.39201 2.96802 2.21601 2.77603 1.94401 2.68003C1.68801 2.56803 1.31201 2.50402 0.81601 2.48802V2.00802C1.47201 2.02402 2.16801 2.04003 2.90401 2.05603C3.64001 2.05603 4.36801 2.06402 5.08801 2.08002C5.80801 2.08002 6.48001 2.08002 7.10401 2.08002C7.72801 2.08002 8.24001 2.08002 8.64001 2.08002C9.37601 2.08002 10.208 2.08002 11.136 2.08002C12.08 2.06402 12.92 2.04002 13.656 2.00802ZM10.08 10.312C10.08 10.312 10.08 10.392 10.08 10.552C10.08 10.712 10.08 10.792 10.08 10.792H5.71201C5.71201 10.792 5.71201 10.712 5.71201 10.552C5.71201 10.392 5.71201 10.312 5.71201 10.312H10.08ZM10.68 7.14402C10.616 8.05602 10.584 8.75203 10.584 9.23203C10.6 9.71203 10.608 10.152 10.608 10.552C10.608 10.952 10.616 11.392 10.632 11.872C10.648 12.352 10.688 13.048 10.752 13.96H10.2C10.104 13.4 9.95201 12.88 9.74401 12.4C9.53601 11.92 9.23201 11.536 8.83201 11.248C8.43201 10.944 7.91201 10.792 7.27201 10.792V10.312C7.75201 10.312 8.15201 10.216 8.47201 10.024C8.80801 9.81602 9.08801 9.55202 9.31201 9.23203C9.53601 8.89602 9.71201 8.54402 9.84001 8.17602C9.96801 7.80802 10.064 7.46402 10.128 7.14402H10.68Z" fill="#10375C"/>
<path d="M23.0351 6.25602C23.5471 6.25602 23.9631 6.36802 24.2831 6.59202C24.6031 6.80002 24.8351 7.07203 24.9791 7.40803C25.1391 7.74403 25.2191 8.09603 25.2191 8.46403C25.2191 9.05603 25.0431 9.54402 24.6911 9.92802C24.3551 10.296 23.9071 10.48 23.3471 10.48C22.7871 10.48 22.3471 10.344 22.0271 10.072C21.7231 9.78403 21.5711 9.40803 21.5711 8.94403C21.5711 8.49603 21.6671 8.12802 21.8591 7.84002C22.0671 7.53602 22.3231 7.28002 22.6271 7.07202C22.4031 7.00802 22.1791 7.01602 21.9551 7.09602C21.6511 7.14402 21.3631 7.27202 21.0911 7.48002C20.8191 7.67202 20.5871 7.92002 20.3951 8.22402C20.2031 8.51202 20.0511 8.83202 19.9391 9.18402C19.8271 9.52002 19.7711 9.84802 19.7711 10.168V16.528C19.7711 17.296 19.9551 17.816 20.3231 18.088C20.7071 18.36 21.2751 18.496 22.0271 18.496V19C21.6591 18.984 21.1231 18.968 20.4191 18.952C19.7151 18.92 18.9791 18.904 18.2111 18.904C17.5711 18.904 16.9231 18.92 16.2671 18.952C15.6111 18.968 15.1151 18.984 14.7791 19V18.496C15.3391 18.496 15.7311 18.376 15.9551 18.136C16.1951 17.896 16.3151 17.44 16.3151 16.768V9.20802C16.3151 8.48803 16.2031 7.96002 15.9791 7.62402C15.7711 7.27202 15.3711 7.09602 14.7791 7.09602V6.59202C15.2911 6.64002 15.7871 6.66402 16.2671 6.66402C16.9391 6.66402 17.5631 6.64002 18.1391 6.59202C18.7311 6.52802 19.2751 6.44002 19.7711 6.32803V8.56002C19.9631 8.12802 20.2191 7.73602 20.5391 7.38402C20.8591 7.03202 21.2271 6.76002 21.6431 6.56803C22.0591 6.36002 22.5231 6.25602 23.0351 6.25602Z" fill="#10375C"/>
<path d="M29.1023 0.400024C29.7743 0.400024 30.3023 0.568025 30.6863 0.904025C31.0863 1.22402 31.2863 1.67202 31.2863 2.24802C31.2863 2.82402 31.0863 3.28002 30.6863 3.61602C30.3023 3.93602 29.7743 4.09602 29.1023 4.09602C28.4303 4.09602 27.8943 3.93602 27.4943 3.61602C27.1103 3.28002 26.9183 2.82402 26.9183 2.24802C26.9183 1.67202 27.1103 1.22402 27.4943 0.904025C27.8943 0.568025 28.4303 0.400024 29.1023 0.400024ZM30.9743 6.32803V16.768C30.9743 17.44 31.0863 17.896 31.3103 18.136C31.5503 18.376 31.9503 18.496 32.5103 18.496V19C32.2223 18.984 31.7743 18.968 31.1663 18.952C30.5583 18.92 29.9423 18.904 29.3183 18.904C28.6943 18.904 28.0623 18.92 27.4223 18.952C26.7823 18.968 26.3023 18.984 25.9823 19V18.496C26.5423 18.496 26.9343 18.376 27.1583 18.136C27.3983 17.896 27.5183 17.44 27.5183 16.768V9.20802C27.5183 8.48803 27.4063 7.96002 27.1823 7.62402C26.9743 7.27202 26.5743 7.09602 25.9823 7.09602V6.59202C26.4943 6.64002 26.9903 6.66402 27.4703 6.66402C28.1423 6.66402 28.7663 6.64002 29.3423 6.59202C29.9343 6.52802 30.4783 6.44002 30.9743 6.32803Z" fill="#10375C"/>
<path d="M38.3046 6.25602C38.9766 6.25602 39.5606 6.34402 40.0566 6.52002C40.5686 6.68002 40.9366 6.84002 41.1606 7.00003C41.7046 7.36802 42.0406 7.12802 42.1686 6.28002H42.6726C42.6406 6.72802 42.6166 7.28002 42.6006 7.93602C42.5846 8.57602 42.5766 9.43202 42.5766 10.504H42.0726C41.9926 9.91202 41.8406 9.32803 41.6166 8.75203C41.3926 8.17603 41.0646 7.70402 40.6326 7.33602C40.2166 6.96803 39.6726 6.78403 39.0006 6.78403C38.5366 6.78403 38.1446 6.92002 37.8246 7.19202C37.5046 7.44802 37.3446 7.82403 37.3446 8.32002C37.3446 8.80002 37.4886 9.22402 37.7766 9.59202C38.0646 9.94402 38.4326 10.288 38.8806 10.624C39.3446 10.944 39.8246 11.288 40.3206 11.656C40.8486 12.056 41.3286 12.456 41.7606 12.856C42.1926 13.24 42.5366 13.664 42.7926 14.128C43.0486 14.592 43.1766 15.144 43.1766 15.784C43.1766 16.504 42.9686 17.136 42.5526 17.68C42.1366 18.208 41.5846 18.616 40.8966 18.904C40.2246 19.192 39.4726 19.336 38.6406 19.336C38.1606 19.336 37.7286 19.288 37.3446 19.192C36.9766 19.096 36.6566 18.976 36.3846 18.832C36.1766 18.736 35.9766 18.648 35.7846 18.568C35.6086 18.472 35.4406 18.392 35.2806 18.328C35.1206 18.28 34.9766 18.336 34.8486 18.496C34.7366 18.656 34.6486 18.88 34.5846 19.168H34.0806C34.1126 18.656 34.1366 18.032 34.1526 17.296C34.1686 16.56 34.1766 15.584 34.1766 14.368H34.6806C34.7766 15.232 34.9526 16 35.2086 16.672C35.4646 17.328 35.8086 17.848 36.2406 18.232C36.6886 18.6 37.2486 18.784 37.9206 18.784C38.1926 18.784 38.4566 18.728 38.7126 18.616C38.9686 18.504 39.1766 18.32 39.3366 18.064C39.5126 17.808 39.6006 17.48 39.6006 17.08C39.6006 16.376 39.3686 15.792 38.9046 15.328C38.4566 14.864 37.8806 14.36 37.1766 13.816C36.6646 13.4 36.1766 12.992 35.7126 12.592C35.2646 12.176 34.8966 11.728 34.6086 11.248C34.3206 10.752 34.1766 10.192 34.1766 9.56803C34.1766 8.84803 34.3686 8.24002 34.7526 7.74402C35.1366 7.24802 35.6406 6.88003 36.2646 6.64002C36.9046 6.38403 37.5846 6.25602 38.3046 6.25602Z" fill="#10375C"/>
<path d="M49.5345 6.32803V20.968C49.5345 21.72 49.7265 22.216 50.1105 22.456C50.4945 22.712 51.0225 22.84 51.6945 22.84V23.344C51.2785 23.328 50.7025 23.304 49.9665 23.272C49.2465 23.256 48.4785 23.248 47.6625 23.248C47.0705 23.248 46.4865 23.256 45.9105 23.272C45.3505 23.304 44.9265 23.328 44.6385 23.344V22.84C45.1665 22.84 45.5345 22.728 45.7425 22.504C45.9665 22.28 46.0785 21.848 46.0785 21.208V9.20802C46.0785 8.48803 45.9665 7.96002 45.7425 7.62402C45.5185 7.27202 45.1185 7.09602 44.5425 7.09602V6.59202C45.0545 6.64002 45.5505 6.66402 46.0305 6.66402C46.6865 6.66402 47.3105 6.64002 47.9025 6.59202C48.4945 6.52802 49.0385 6.44002 49.5345 6.32803ZM53.2545 6.25602C54.0705 6.25602 54.7985 6.48002 55.4385 6.92802C56.0785 7.36002 56.5905 8.02402 56.9745 8.92002C57.3585 9.80002 57.5505 10.904 57.5505 12.232C57.5505 13.4 57.4145 14.424 57.1425 15.304C56.8865 16.184 56.5105 16.928 56.0145 17.536C55.5345 18.128 54.9505 18.576 54.2625 18.88C53.5905 19.184 52.8305 19.336 51.9825 19.336C51.3585 19.336 50.7905 19.224 50.2785 19C49.7665 18.792 49.3745 18.488 49.1025 18.088L49.3425 17.776C49.5025 18.064 49.7265 18.288 50.0145 18.448C50.3185 18.608 50.6625 18.688 51.0465 18.688C51.7665 18.688 52.3345 18.448 52.7505 17.968C53.1665 17.472 53.4625 16.784 53.6385 15.904C53.8305 15.008 53.9265 13.944 53.9265 12.712C53.9265 11.336 53.8385 10.256 53.6625 9.47202C53.4865 8.68802 53.2465 8.12803 52.9425 7.79203C52.6385 7.45602 52.2705 7.28802 51.8385 7.28802C51.2625 7.28802 50.7345 7.51202 50.2545 7.96003C49.7905 8.40803 49.5265 9.04802 49.4625 9.88002L49.3425 9.04002C49.6305 8.12802 50.1185 7.44002 50.8065 6.97602C51.5105 6.49602 52.3265 6.25602 53.2545 6.25602Z" fill="#10375C"/>
<path d="M65.2211 6.25602C66.6291 6.25602 67.7331 6.67203 68.5331 7.50402C69.3331 8.33603 69.7331 9.69602 69.7331 11.584H61.8371L61.7891 11.128H66.7091C66.7251 10.344 66.6771 9.62403 66.5651 8.96803C66.4531 8.29603 66.2771 7.76003 66.0371 7.36002C65.7971 6.96002 65.4771 6.76002 65.0771 6.76002C64.5171 6.76002 64.0371 7.11202 63.6371 7.81603C63.2531 8.52003 63.0211 9.68802 62.9411 11.32L63.0131 11.464C62.9971 11.656 62.9811 11.856 62.9651 12.064C62.9651 12.272 62.9651 12.488 62.9651 12.712C62.9651 13.816 63.1171 14.712 63.4211 15.4C63.7411 16.088 64.1411 16.592 64.6211 16.912C65.1011 17.216 65.5891 17.368 66.0851 17.368C66.4211 17.368 66.7651 17.32 67.1171 17.224C67.4851 17.112 67.8531 16.92 68.2211 16.648C68.5891 16.36 68.9331 15.96 69.2531 15.448L69.6851 15.592C69.4931 16.2 69.1891 16.792 68.7731 17.368C68.3571 17.944 67.8291 18.416 67.1891 18.784C66.5491 19.152 65.7811 19.336 64.8851 19.336C63.7971 19.336 62.8371 19.104 62.0051 18.64C61.1731 18.176 60.5171 17.472 60.0371 16.528C59.5731 15.584 59.3411 14.384 59.3411 12.928C59.3411 11.44 59.5891 10.2 60.0851 9.20802C60.5971 8.21602 61.2931 7.48002 62.1731 7.00003C63.0691 6.50402 64.0851 6.25602 65.2211 6.25602Z" fill="#10375C"/>
<path d="M75.8749 6.25602C76.5469 6.25602 77.1309 6.34402 77.6269 6.52002C78.1389 6.68002 78.5069 6.84002 78.7309 7.00003C79.2749 7.36802 79.6109 7.12802 79.7389 6.28002H80.2429C80.2109 6.72802 80.1869 7.28002 80.1709 7.93602C80.1549 8.57602 80.1469 9.43202 80.1469 10.504H79.6429C79.5629 9.91202 79.4109 9.32803 79.1869 8.75203C78.9629 8.17603 78.6349 7.70402 78.2029 7.33602C77.7869 6.96803 77.2429 6.78403 76.5709 6.78403C76.1069 6.78403 75.7149 6.92002 75.3949 7.19202C75.0749 7.44802 74.9149 7.82403 74.9149 8.32002C74.9149 8.80002 75.0589 9.22402 75.3469 9.59202C75.6349 9.94402 76.0029 10.288 76.4509 10.624C76.9149 10.944 77.3949 11.288 77.8909 11.656C78.4189 12.056 78.8989 12.456 79.3309 12.856C79.7629 13.24 80.1069 13.664 80.3629 14.128C80.6189 14.592 80.7469 15.144 80.7469 15.784C80.7469 16.504 80.5389 17.136 80.1229 17.68C79.7069 18.208 79.1549 18.616 78.4669 18.904C77.7949 19.192 77.0429 19.336 76.2109 19.336C75.7309 19.336 75.2989 19.288 74.9149 19.192C74.5469 19.096 74.2269 18.976 73.9549 18.832C73.7469 18.736 73.5469 18.648 73.3549 18.568C73.1789 18.472 73.0109 18.392 72.8509 18.328C72.6909 18.28 72.5469 18.336 72.4189 18.496C72.3069 18.656 72.2189 18.88 72.1549 19.168H71.6509C71.6829 18.656 71.7069 18.032 71.7229 17.296C71.7389 16.56 71.7469 15.584 71.7469 14.368H72.2509C72.3469 15.232 72.5229 16 72.7789 16.672C73.0349 17.328 73.3789 17.848 73.8109 18.232C74.2589 18.6 74.8189 18.784 75.4909 18.784C75.7629 18.784 76.0269 18.728 76.2829 18.616C76.5389 18.504 76.7469 18.32 76.9069 18.064C77.0829 17.808 77.1709 17.48 77.1709 17.08C77.1709 16.376 76.9389 15.792 76.4749 15.328C76.0269 14.864 75.4509 14.36 74.7469 13.816C74.2349 13.4 73.7469 12.992 73.2829 12.592C72.8349 12.176 72.4669 11.728 72.1789 11.248C71.8909 10.752 71.7469 10.192 71.7469 9.56803C71.7469 8.84803 71.9389 8.24002 72.3229 7.74402C72.7069 7.24802 73.2109 6.88003 73.8349 6.64002C74.4749 6.38403 75.1549 6.25602 75.8749 6.25602Z" fill="#10375C"/>
<path d="M84.8728 15.64C85.4968 15.64 85.9928 15.808 86.3608 16.144C86.7288 16.464 86.9128 16.912 86.9128 17.488C86.9128 18.064 86.7288 18.52 86.3608 18.856C85.9928 19.176 85.4968 19.336 84.8728 19.336C84.2488 19.336 83.7528 19.176 83.3848 18.856C83.0168 18.52 82.8328 18.064 82.8328 17.488C82.8328 16.912 83.0168 16.464 83.3848 16.144C83.7528 15.808 84.2488 15.64 84.8728 15.64Z" fill="#10375C"/>
</svg>
